<?xml version="1.0" standalone="no"?>
<!DOCTYPE svg PUBLIC "-//W3C//DTD SVG 20010904//EN"
 "http://www.w3.org/TR/2001/REC-SVG-20010904/DTD/svg10.dtd">
<svg version="1.0" xmlns="http://www.w3.org/2000/svg"
 width="207.000000pt" height="207.000000pt" viewBox="0 0 207.000000 207.000000"
 preserveAspectRatio="xMidYMid meet">

<g transform="translate(0.000000,207.000000) scale(0.100000,-0.100000)"
fill="#000000" stroke="none">
<path d="M1052 1865 c-17 -14 -33 -39 -37 -55 -5 -24 -15 -32 -65 -49 -109
-36 -206 -115 -266 -217 -48 -82 -65 -151 -74 -314 -9 -167 -22 -221 -80 -328
-17 -32 -48 -80 -70 -105 -48 -59 -57 -95 -34 -142 32 -68 5 -66 700 -63 l626
3 29 33 c46 51 41 94 -22 178 -103 138 -136 239 -148 454 -9 152 -23 210 -74
294 -58 94 -177 185 -284 217 -35 10 -43 17 -43 36 0 14 -13 38 -29 54 -38 38
-87 39 -129 4z"/>
<path d="M924 423 c27 -72 114 -133 188 -133 75 0 143 43 179 113 l19 37 -196
0 c-183 0 -196 -1 -190 -17z"/>
</g>
</svg>
