<svg xmlns="http://www.w3.org/2000/svg" width="37" height="35" fill="none" viewBox="0 0 37 35"><path fill="#3c3c3c" d="m22.963 19.584.552-.005 2.507-.01q.985-.004 1.972-.014l1.254-.003.595-.007c1.046.003 1.803.052 2.701.647.699.769.992 1.23 1.003 2.254l.008.572.004.62.005.638q.005.667.006 1.336.007 1.02.02 2.041l.006 1.298.01.616c-.004 1.17-.08 1.85-.868 2.74-.714.624-1.318.793-2.257.804l-.553.007-.596.005-.614.004-1.288.007q-.984.005-1.967.02l-1.252.005-.593.01c-1.16-.004-1.811-.099-2.696-.861-.718-.79-.99-1.359-1.003-2.416l-.008-.537-.004-.579-.005-.597q-.005-.625-.006-1.252-.007-.954-.02-1.91L19.87 23.8l-.01-.575c.004-1.112.105-1.773.868-2.648.768-.673 1.217-.984 2.235-.993M5.528 19.584l.553-.005 2.506-.01a301 301 0 0 0 1.972-.014l1.255-.003.594-.007c1.047.003 1.803.052 2.702.647.698.769.991 1.23 1.003 2.254l.007.572.005.62.004.638.007 1.336q.006 1.02.02 2.041l.005 1.298.01.616c-.003 1.17-.08 1.85-.867 2.74-.715.624-1.318.793-2.258.804l-.552.007-.596.005-.615.004-1.288.007q-.984.005-1.967.02l-1.252.005-.592.01c-1.16-.004-1.812-.099-2.697-.861-.718-.79-.99-1.359-1.003-2.416l-.008-.537-.004-.579-.005-.597-.006-1.252q-.006-.954-.02-1.91L2.436 23.8l-.01-.575c.003-1.112.105-1.773.867-2.648.769-.673 1.217-.984 2.235-.993M22.963 2.277l.552-.006.6-.002.615-.004q.645-.002 1.292-.003a308 308 0 0 0 1.972-.014l1.254-.003.595-.008c1.046.004 1.803.052 2.701.648.699.768.992 1.23 1.003 2.254l.008.572.004.62.005.637q.005.668.006 1.337.007 1.02.02 2.04l.006 1.299.01.615c-.004 1.17-.08 1.85-.868 2.741-.714.623-1.318.792-2.257.803l-.553.008-.596.004-.614.005-1.288.006q-.984.006-1.967.02l-1.252.005-.593.01c-1.16-.003-1.811-.098-2.696-.861-.718-.79-.99-1.359-1.003-2.415l-.008-.537-.004-.58-.005-.597-.006-1.251q-.007-.956-.02-1.91l-.006-1.217-.01-.576c.004-1.112.105-1.772.868-2.648.768-.672 1.217-.984 2.235-.992M5.528 2.277l.553-.006.6-.002.615-.004q.645-.002 1.291-.003.987-.004 1.972-.014.627-.003 1.255-.003l.594-.008c1.047.004 1.803.052 2.702.648.698.768.991 1.23 1.003 2.254l.007.572.005.62.004.637.007 1.337q.006 1.02.02 2.04l.005 1.299.01.615c-.003 1.17-.08 1.85-.867 2.741-.715.623-1.318.792-2.258.803l-.552.008-.596.004-.615.005-1.288.006q-.984.006-1.967.02l-1.252.005-.592.01c-1.16-.003-1.812-.098-2.697-.861-.718-.79-.99-1.359-1.003-2.415l-.008-.537-.004-.58-.005-.597-.006-1.251q-.006-.956-.02-1.91l-.005-1.217-.01-.576c.003-1.112.105-1.772.867-2.648.769-.672 1.217-.984 2.235-.992"/><path fill="#1c1b19" d="M7.034 22.464c.948.303 1.433.838 2.07 1.575.584-.259.969-.55 1.417-.998.558-.489.652-.54 1.441-.553.939.305.939.305 1.21.781.134.613.134.613 0 1.346-.464.575-.987 1.06-1.549 1.539.254.573.512.91.993 1.31.493.476.553.596.69 1.31-.133.65-.133.65-.533 1.13-.569.288-.569.288-1.223.324-.937-.305-1.426-.843-2.058-1.574-.583.258-.968.55-1.416.997-.563.494-.656.54-1.453.553-.618-.204-.618-.204-1.005-.78-.11-.614-.11-.614 0-1.347.4-.567.86-1.054 1.356-1.539-.254-.548-.468-.855-.896-1.31-.46-.613-.46-.613-.57-1.31.11-.649.11-.649.412-1.13.473-.288.473-.288 1.114-.324M27.702 5.385c.375.312.375.312.58.769.037.721.037.721 0 1.346l.521-.036c.715.04 1.042.193 1.61.613.276.546.255.934.194 1.538-.361.443-.65.708-1.162.962q-.581.012-1.162 0l.06.613c-.06.733-.06.733-.46 1.31-.569.385-.569.385-1.271.397-.654-.205-.654-.205-1.03-.505-.302-.689-.243-1.26-.205-2.007l-.36.02-.475.016-.47.02c-.438-.056-.438-.056-.781-.3-.286-.4-.317-.616-.311-1.103l-.005-.396c.102-.491.249-.66.659-.95.438-.056.438-.056.908-.036l.474.016.361.02-.034-.351c-.07-1.247-.07-1.247.434-1.884.745-.347 1.141-.303 1.925-.072M25.14 27.206c.255-.002.51-.003.774-.003l.401.004c.404.005.807 0 1.21-.005l.775.003.708.003c.75.119 1.075.33 1.6.869.12.673.12.673 0 1.346-.525.54-.85.75-1.6.869l-.708.002-.774.003-.4-.004c-.405-.005-.808 0-1.212.005l-.774-.003-.707-.003c-.72-.119-.952-.29-1.38-.869-.107-.742-.144-1.153.31-1.766.617-.465 1.008-.449 1.777-.451M25.14 22.398l.774-.003.401.005q.606.004 1.21-.005l.775.003.708.002c.75.119 1.075.33 1.6.87.12.672.12.672 0 1.345-.525.54-.85.75-1.6.87l-.708.002-.774.003-.4-.005q-.607-.004-1.212.005l-.774-.003-.707-.003c-.72-.118-.952-.29-1.38-.869-.107-.741-.144-1.153.31-1.766.617-.465 1.008-.448 1.777-.451M7.585 7.609l.408-.003h.856q.652.002 1.306-.01h1.595c.648.096.648.096 1.117.45.306.416.306.416.403.992-.122.724-.288.906-.872 1.347-.648.096-.648.096-1.411.095h-.41q-.427 0-.854-.006a71 71 0 0 0-1.307-.001l-.831-.005-.763-.006c-.623-.077-.623-.077-.995-.348-.26-.382-.287-.616-.282-1.076l-.004-.396c.225-1.09 1.079-1.026 2.044-1.033"/></svg>