<svg xmlns="http://www.w3.org/2000/svg" width="304" height="296" viewBox="0 0 228 222"><path fill="#8f8f8d" d="M44.5 39.9c-4.7 2.2-9.9 7.4-11.4 11.4-1.8 4.6-1.3 13.3.8 17.5 1.1 2 4.7 6.4 8 9.7 3.4 3.3 6.1 6.2 6.1 6.5 0 .4-2.7 3.8-6.1 7.6-3.3 3.8-7 8.7-8.1 10.9-2.5 4.8-2.7 12.4-.5 17.5 2.1 5 25.7 32.2 32 36.9 6.3 4.8 16.1 9.5 24.2 11.6s26 1.9 34.7-.4l6.7-1.7 7.8 7.9c8.9 9 13.6 11.7 20.8 11.7 9.3 0 17.7-6.2 20.4-14.9 2.6-8.9.6-14.5-8.7-24.2l-7.3-7.7 7.5-8.6c5-5.9 7.8-10.1 8.6-13.1 1.4-4.9.8-11.1-1.5-15.5-2.4-4.7-26.1-31.6-31.2-35.5-6.8-5.2-18-10.3-26.5-12.1-8.9-1.9-25.7-1.4-33.7 1.1l-5.3 1.6-9.2-8.9c-6.6-6.6-10.2-9.3-13.1-10.1-5.7-1.6-10.4-1.3-15 .8m69.2 65.4c51.6 51.5 56.3 56.5 56.3 59.5 0 7.8-6.7 13.4-13.3 11.3-2.2-.8-20.6-18.5-57.8-55.8-30.1-30.2-55.2-55.8-55.8-57-2-3.9-1.3-7.3 2.3-10.9 2.8-2.8 4.1-3.4 7.7-3.4h4.4zm12.5-37.4c12.3 4.8 19.8 11.5 39.1 35.4 4.9 6.1 5.8 9.7 3.5 14-1.5 2.9-10.8 14.1-12.1 14.6-.9.3-65.7-63.7-65.7-65.1 0-1.3 4.5-1.6 17-1.4 10.1.2 13.6.7 18.2 2.5m-36.8 58 32.9 32.9-3.9.9c-7 1.4-22.4.8-28.4-1.1-13.9-4.7-19.7-9.2-35.5-27.5-12-14-13.9-17.6-11.4-22.2C44.6 106 55.2 93 56 93c.3 0 15.3 14.8 33.4 32.9"/></svg>