<svg xmlns="http://www.w3.org/2000/svg" width="36" height="29" fill="none" viewBox="0 0 36 29"><path fill="#8f8f8d" d="M14.486 5.203c-1.955.443-3.617 1.245-5.006 2.422-.874.768-4.491 5.016-4.886 5.766-.428.819-.463 2.116-.085 2.986.36.852 4.405 5.492 5.485 6.294 2.023 1.518 4.252 2.235 6.977 2.235 2.143 0 3.6-.307 5.229-1.126 1.611-.785 2.657-1.723 5.16-4.623 2.246-2.627 2.623-3.326 2.4-4.674-.171-1.058-.446-1.467-2.76-4.145-2.366-2.73-3.171-3.43-5.006-4.3-2.177-1.04-5.108-1.364-7.508-.835m5.108 1.876c2.177.563 3.446 1.485 5.812 4.248 2.365 2.73 2.537 2.985 2.537 3.582 0 .7-.326 1.178-2.606 3.753-3.051 3.48-4.868 4.453-8.366 4.436-2.451 0-4.268-.614-6.034-2.047-1.32-1.075-4.748-5.152-4.868-5.783-.138-.75.051-1.075 2.057-3.395 2.725-3.207 4.011-4.197 6.223-4.794 1.148-.307 4.045-.307 5.245 0"/><path fill="#8f8f8d" d="M15.771 10.56c-1.251.392-2.502 1.5-3 2.678-.325.784-.325 2.627 0 3.411.738 1.757 2.298 2.798 4.183 2.798 3.617 0 5.743-3.668 3.943-6.79-.977-1.705-3.291-2.643-5.126-2.098m2.572 2.046c.908.461 1.406 1.433 1.32 2.542-.103 1.518-1.166 2.49-2.709 2.49-1.628 0-2.931-1.5-2.674-3.087.309-1.808 2.417-2.832 4.063-1.945"/></svg>