<?xml version="1.0" standalone="no"?>
<!DOCTYPE svg PUBLIC "-//W3C//DTD SVG 20010904//EN"
 "http://www.w3.org/TR/2001/REC-SVG-20010904/DTD/svg10.dtd">
<svg version="1.0" xmlns="http://www.w3.org/2000/svg"
 width="224.000000pt" height="201.000000pt" viewBox="0 0 224.000000 201.000000"
 preserveAspectRatio="xMidYMid meet">

<g transform="translate(0.000000,201.000000) scale(0.100000,-0.100000)"
fill="#000000" stroke="none">
<path d="M899 1802 c-27 -24 -33 -41 -55 -146 -13 -66 -25 -120 -27 -121 -1
-1 -30 -18 -64 -38 l-62 -36 -103 35 c-121 40 -170 43 -201 12 -41 -41 -127
-203 -127 -238 0 -34 39 -79 155 -181 41 -35 41 -35 41 -109 0 -74 0 -74 -41
-109 -116 -102 -155 -147 -155 -181 0 -35 86 -197 127 -238 31 -31 78 -28 203
13 98 32 107 33 129 18 13 -9 40 -25 60 -36 20 -11 37 -21 38 -22 2 -1 12 -48
23 -106 23 -119 42 -162 76 -178 32 -14 246 -14 278 0 34 16 53 59 76 179 11
58 24 106 29 108 4 1 32 18 61 36 l53 33 80 -24 c44 -14 91 -29 104 -34 45
-17 102 -11 126 13 41 41 127 203 127 238 0 34 -27 65 -152 178 l-48 42 0 70
0 70 48 42 c125 113 152 144 152 178 0 35 -86 197 -127 238 -31 31 -77 28
-203 -12 l-105 -33 -55 30 c-30 17 -58 33 -62 36 -4 4 -19 60 -32 126 -22 106
-28 123 -55 147 -31 27 -34 28 -156 28 -122 0 -125 -1 -156 -28z m268 -600
c140 -72 178 -263 75 -382 -93 -109 -247 -118 -354 -22 -59 53 -82 104 -82
182 0 103 54 183 154 230 56 26 146 23 207 -8z"/>
</g>
</svg>
