<svg xmlns="http://www.w3.org/2000/svg" width="29" height="30" fill="none" viewBox="0 0 29 30"><path fill="#3c3c3c" d="M7.903 4.694c-3.441 2.577-6.512 4.941-6.83 5.241C-.002 10.96-.037 11.418.016 19.888c.053 8.277.035 8.03 1.147 9.089C2.256 30.017 1.938 30 14.185 30c9.724 0 11.312-.035 11.877-.265.83-.353 1.394-.882 1.817-1.712.318-.617.336-1.129.336-8.646 0-7.96 0-7.995-.406-8.7-.3-.548-1.747-1.73-6.3-5.153C18.262 3.07 15.262.829 14.874.529L14.131 0zm12.159 4.13 4.606 3.44.017 7.095v7.112h-5.294v-3.142c0-3.635-.159-4.323-1.27-5.594-.389-.44-1.13-1.023-1.624-1.288-1.235-.635-3.318-.67-4.535-.07-1.13.547-2.065 1.517-2.612 2.664-.424.936-.459 1.183-.512 4.2l-.07 3.23h-5.26V12.389L8.822 8.4l5.329-3.988.653.494c.353.265 2.718 2.03 5.259 3.918m-4.289 10.94.53.53.053 3.088.053 3.089h-4.43v-2.912c0-3.141.142-3.741.918-4.165 1.112-.6 2.012-.476 2.877.37"/></svg>