<svg xmlns="http://www.w3.org/2000/svg" width="52" height="36" fill="none" viewBox="0 0 52 36"><path fill="#6367ff" fill-rule="evenodd" stroke="#6367ff" stroke-linejoin="round" stroke-width=".8" d="M18.887.413c-.749.022-.901.04-.983.113-.053.048-.242.134-.419.19-.47.15-.89.468-1.091.824a2.7 2.7 0 0 1-.324.458c-.132.137-.168.229-.224.574-.155.958-.119 1.64.11 2.078.066.126.158.324.207.441s.12.239.158.27c.04.033.134.196.21.364s.206.382.288.477.247.312.364.482c.119.17.343.418.499.553.286.247 1.202.76 1.357.76.061 0 .175.032.254.073.13.067.153.064.27-.027a.5.5 0 0 0 .158-.191c.053-.17-.1-.397-.56-.825a8 8 0 0 1-.686-.716 35 35 0 0 1-.362-.477c-.267-.36-.574-1.028-.574-1.25 0-.098-.038-.199-.095-.25a.5.5 0 0 1-.121-.27 5 5 0 0 0-.085-.424c-.043-.172-.045-.277-.008-.374.028-.074.065-.246.082-.383.044-.348.128-.506.318-.594.102-.048.269-.144.37-.212.37-.252 1.785-.404 2.475-.267.166.033.392.076.502.095s.257.072.326.116c.07.044.34.17.603.281.262.11.593.264.735.341s.437.276.653.443.529.378.694.471c.17.095.506.372.769.633.257.255.507.464.556.464.085 0 .307-.22.307-.304 0-.04-.078-.23-.172-.421a4.3 4.3 0 0 0-.49-.72c-.227-.266-1.116-1.082-1.376-1.265-.086-.06-.29-.196-.452-.303-.162-.108-.442-.291-.622-.408a4.1 4.1 0 0 0-1.046-.448 2.2 2.2 0 0 1-.61-.275c-.139-.096-.844-.13-1.965-.098zm9.781 2.542c-.187.05-.505.106-.708.125-.207.02-.423.071-.495.118l-.27.18c-.16.107-.421.359-.421.406 0 .033.032.085.07.117.123.101.752.17 1.712.187l2.27.04c.71.013 1.255.044 1.313.075a.6.6 0 0 0 .25.052c.083 0 .283.036.443.08s.37.098.466.12.312.085.477.14c.432.14 1.05.308 1.138.308.07 0 .257.045.418.1s.343.1.405.1.296.077.519.173c.222.094.558.206.744.247.187.042.622.175.967.296.346.12.727.236.847.256s.341.09.49.156c.15.066.306.12.348.12s.209.067.373.15.364.149.443.149.272.067.426.149.389.173.521.201c.133.029.377.118.542.2.166.08.394.17.508.197.113.028.294.11.401.183.217.146 1.146.566 1.252.566.068 0 .234.103.396.243.19.165 1.047.705 1.12.705.022 0 .16.09.307.2s.313.2.368.2c.25 0 1.244.83 1.244 1.038 0 .095-.028.108-.22.108-.12 0-.315.034-.432.075s-.42.1-.672.129c-.252.03-.639.107-.86.173s-.631.165-.913.223c-.465.095-.707.19-1.57.614-.156.077-.65.695-.703.882a2 2 0 0 0-.05.432c-.001.236.023.29.293.648.161.215.393.492.515.616.122.123.332.309.468.412.135.103.304.202.375.22.072.016.228.108.346.204.12.095.29.192.377.214s.26.077.383.121c.127.047.277.068.351.05a.6.6 0 0 0 .216-.111c.049-.043.088-.106.088-.14s-.091-.137-.203-.23a21 21 0 0 1-.565-.495c-.199-.181-.5-.436-.673-.567-.511-.393-.813-.953-.604-1.122.172-.14 1.072-.552 1.205-.553.09 0 .298-.035.464-.077.205-.052.75-.09 1.706-.121.773-.025 1.598-.056 1.832-.07.49-.026.727.044.801.238.026.068.072.422.1.788.03.365.09.967.134 1.338.044.37.088.87.098 1.11.015.406.008.445-.112.587a1 1 0 0 0-.172.337c-.024.102-.044.32-.046.485a3.7 3.7 0 0 1-.082.648 7 7 0 0 0-.111.833c-.03.434-.046.498-.168.624-.074.077-.214.308-.311.514a4 4 0 0 0-.236.623 4 4 0 0 1-.223.599c-.09.192-.21.45-.264.576a5 5 0 0 1-.342.598 11 11 0 0 0-.461.796c-.12.233-.305.514-.411.624s-.227.284-.27.387c-.068.166-.453.64-.898 1.109-.186.196-.338.38-.338.407 0 .028.044.091.098.14.134.12.382.056.807-.205.514-.316 1.783-1.48 1.932-1.77.048-.093.219-.307.38-.476.163-.17.338-.405.39-.524.053-.12.2-.317.327-.439s.231-.248.231-.292.02-.11.043-.136c.04-.045.41-1.017.41-1.079 0-.091.42-1.227.477-1.29.128-.14.239-.644.25-1.137l.01-.514.204-.209c.332-.34.382-.518.388-1.406.003-.439.023-1.247.046-1.795.045-1.131-.027-1.82-.22-2.078-.056-.076-.206-.38-.333-.677-.126-.295-.282-.594-.345-.662a1.6 1.6 0 0 1-.217-.358c-.086-.196-.219-.326-.847-.823-.41-.325-.925-.687-1.146-.805a20 20 0 0 1-.728-.41c-.18-.109-.45-.265-.602-.349s-.592-.331-.979-.55a25 25 0 0 0-1.104-.59c-.377-.182-1.773-.803-1.805-.803-.02 0-.351-.147-.735-.327-.562-.264-1.203-.509-1.567-.599a6 6 0 0 1-.653-.214c-.642-.252-1.36-.493-1.578-.53a1 1 0 0 1-.366-.155.6.6 0 0 0-.294-.12c-.098 0-1.022-.243-1.207-.318a4 4 0 0 0-.452-.133 2.5 2.5 0 0 1-.451-.15c-.1-.05-.358-.1-.603-.119-.433-.032-1.248-.146-1.355-.19a2.6 2.6 0 0 0-.451-.095c-.583-.08-1.617-.193-1.763-.193-.128 0-.314-.034-.413-.075-.28-.116-2.047-.1-2.505.022Zm1.366 3.472a1 1 0 0 0-.225.382c-.048.193-.07.213-.351.316-.875.322-1.05.418-1.386.758-.46.469-.547.863-.337 1.538.135.436.467.775.874.893.143.041.29.113.33.158.037.046.23.157.426.246.262.119.365.193.386.279.016.063.045.398.063.742.031.556.025.635-.052.712-.18.178-.679-.018-.835-.328-.144-.287-.456-.586-.61-.586-.13 0-.445.144-.577.264-.157.143-.163.668-.01.914.109.175.835.768.941.768.047 0 .153.045.235.1.083.054.188.099.232.099s.196.048.337.106c.258.106.293.157.381.554.046.204.22.296.444.235.24-.067.338-.216.338-.521 0-.226.015-.262.145-.339a.75.75 0 0 1 .314-.087c.293-.003 1.36-.449 1.587-.663.193-.183.614-1.017.611-1.212q-.005-.368-.472-.888c-.447-.495-.904-.766-1.457-.863-.333-.057-.578-.077-.703-.056-.085.015-.1-.009-.094-.158.022-.62.096-1.696.117-1.696.018 0 .054.019.08.042.026.022.15.07.273.105.417.118.646.245.885.489.223.228.282.263.451.263.596 0 .822-.698.377-1.163-.1-.105-.28-.257-.398-.337-.367-.249-.505-.295-.863-.295-.227 0-.412-.029-.51-.08-.11-.057-.169-.064-.208-.025-.03.03-.068.055-.084.055-.017 0-.036-.151-.043-.336-.02-.553-.286-.72-.613-.385Zm-.361 1.948c.178.036.263.204.263.524 0 .188-.105.708-.153.761-.022.024-.197-.041-.39-.145-.3-.161-.367-.222-.462-.424-.098-.208-.104-.257-.05-.42.061-.183.277-.32.509-.324.072-.001.2.011.283.028Zm1.441 2.717c.441.199.72.4.776.558.134.38.01.617-.45.851-.356.183-.635.23-.74.124-.062-.06-.087-1.594-.027-1.652a.12.12 0 0 1 .068-.034c.019 0 .187.07.374.153ZM16.186 7.725c-.15.098-.341.206-.426.242-.086.035-.299.183-.475.328-.175.146-.549.491-.83.769-.28.277-.653.616-.826.753-.404.319-1.033.891-1.64 1.493a69 69 0 0 1-1.489 1.425 42 42 0 0 0-1.499 1.472c-.422.439-.847.858-.945.93-.098.074-.558.53-1.023 1.012-.465.483-.95 1.018-1.076 1.189a6 6 0 0 1-.576.635 8 8 0 0 0-.613.648c-.146.179-.3.403-.34.5-.04.095-.307.418-.595.717-.287.299-.567.617-.622.707s-.178.295-.272.455-.258.384-.364.5c-.106.117-.192.243-.192.282s-.09.18-.202.313-.217.296-.234.362c-.017.067-.196.446-.4.844-.202.397-.369.76-.369.803a.4.4 0 0 1-.075.188c-.058.08-.384.98-.423 1.162a1.6 1.6 0 0 1-.114.325C.482 25.943.4 26.782.4 27.485c0 .615.008.667.11.77l.112.11.102-.09c.056-.051.103-.124.103-.162s.048-.134.108-.214c.09-.12.102-.188.077-.4-.029-.239.028-.462.156-.615.037-.044.077-.19.093-.338.017-.148.07-.347.119-.443.08-.157.25-.72.25-.827 0-.068.091-.22.215-.359s.358-.528.551-.917c.26-.524.396-.736.607-.945.149-.148.346-.393.437-.544.091-.15.314-.458.495-.684.181-.225.408-.515.505-.645.097-.129.297-.349.445-.488a3.6 3.6 0 0 0 .421-.477c.084-.124.282-.36.442-.524.159-.165.455-.493.658-.73.512-.599 1.92-2.104 2.665-2.85.572-.575 1.04-1.063 1.04-1.085s.656-.7 1.456-1.504c.8-.805 1.496-1.509 1.547-1.564s.233-.22.405-.367c.171-.147.365-.349.429-.449s.692-.754 1.397-1.453l1.28-1.272.036-.318c.034-.293.027-.327-.083-.437l-.12-.118-.271.177zM47.24 18.409a2.3 2.3 0 0 0-.281.44c-.084.166-.19.333-.236.37-.045.039-.15.194-.231.347a8 8 0 0 1-.647.975l-.568.718c-.188.236-.465.558-.617.715-.363.378-1.589 1.336-1.876 1.468a11 11 0 0 1-.646.247 4.4 4.4 0 0 0-.628.268 2.6 2.6 0 0 1-.93.359 9 9 0 0 0-.543.093c-.116.026-.596.062-1.066.08-.746.029-.865.045-.94.127-.082.091-.082.097.013.186.053.05.3.16.549.246.371.126.563.16 1.079.186.345.017.929.029 1.297.025.56-.005.702-.022.864-.105.106-.053.215-.098.242-.098.056 0 1.466-.71 1.637-.824.636-.425 1.892-1.545 2.39-2.13.1-.117.256-.348.347-.513.091-.164.204-.344.252-.399.047-.055.114-.223.15-.374.034-.15.103-.353.151-.449.067-.13.2-.633.2-.754 0-.057.053-.209.12-.336.156-.302.28-.633.28-.748 0-.117-.095-.257-.176-.257-.03 0-.114.061-.185.137Zm-4.584 7.434c-.247.186-.528.367-.625.403a8 8 0 0 0-.527.235c-.193.094-.43.183-.527.2-.096.016-.316.062-.487.102s-.386.07-.476.066c-.303-.011-1.648.18-1.948.277-.124.04-.327.087-.451.104-.125.017-.464.072-.753.122-.29.05-.697.106-.904.123-.508.041-1.148.15-1.28.216-.126.065-.51.149-1.053.23a11 11 0 0 0-.778.148c-.18.043-.394.08-.477.08-.083.002-.422.072-.753.156a18 18 0 0 1-.828.196c-.125.022-.35.075-.502.118-.151.042-.434.119-.627.17a5 5 0 0 0-.756.296c-.222.111-.547.25-.722.306a2 2 0 0 0-.374.149c-.03.024-.287.14-.569.259-.58.242-.88.485-.784.634.058.09.237.094.781.015.213-.03.608-.114.878-.184s.57-.145.667-.166c.096-.02.248-.074.336-.12a.8.8 0 0 1 .29-.083.9.9 0 0 0 .328-.1c.108-.055.26-.1.336-.1.102-.001.78-.136.88-.175q.086-.032.088.028c0 .035-.09.14-.202.235-.111.095-.247.26-.302.368-.056.108-.252.347-.438.532-.235.235-.83.982-1.241 1.556a9 9 0 0 0-.53.873c-.143.274-.323.59-.4.7-.076.11-.165.302-.196.424-.032.122-.09.307-.13.41-.104.268-.084.508.053.636l.126.118.179-.172c.099-.094.214-.239.257-.32.044-.083.2-.28.347-.44.148-.16.27-.31.27-.335s.096-.164.214-.309.265-.35.327-.455c.121-.206.482-.646.85-1.034.229-.24.415-.46.415-.487 0-.028.095-.136.212-.241s.439-.41.715-.679a6 6 0 0 1 1.17-.898c.826-.51 1.208-.752 1.498-.872s.487-.116.945-.136c.417-.019.796-.059.853-.091s.284-.087.505-.12c.22-.035.565-.086.765-.115s.424-.075.497-.103.485-.075.916-.106c.471-.034.813-.082.858-.12a.8.8 0 0 1 .276-.096c.146-.026.931-.285 1.28-.422.151-.06.345-.127.43-.148.084-.02.344-.136.577-.256.26-.134.54-.33.724-.508a5 5 0 0 1 .413-.363.6.6 0 0 0 .181-.21c.039-.075.085-.233.103-.352.03-.193.018-.229-.114-.361-.082-.081-.19-.147-.243-.147s-.297.152-.543.338z" clip-rule="evenodd"/></svg>