<svg xmlns="http://www.w3.org/2000/svg" width="40" height="30" fill="none" viewBox="0 0 40 30"><path fill="#3c3c3c" d="M0 15v15h40V0H0zm36.25 0v11.25H3.75V3.75h32.5z"/><path fill="#3c3c3c" d="M11.25 7.825c0 .725-.125.875-1.05 1.3-1.6.75-2.275 1.9-2.15 3.7.1 1.225.225 1.55.95 2.3.675.7 1.175.925 2.725 1.275 2.25.475 2.75.825 2.15 1.45-.325.325-.925.4-2.9.4H8.5v3h2.75V23h3.25v-.975c0-.85.1-1 .75-1.275 1.675-.7 2.5-3.25 1.575-4.975-.575-1.1-1.475-1.75-2.85-2.05-2.35-.525-2.975-.75-2.975-1.1 0-.625.925-.875 3.35-.875h2.4v-3h-1.125c-1.125 0-1.125 0-1.125-.875V7h-3.25zM21.25 11.875v1.875H32.5V10H21.25zM21.25 18.125V20H32.5v-3.75H21.25z"/></svg>