<svg xmlns="http://www.w3.org/2000/svg" width="32" height="30" fill="none" viewBox="0 0 32 30"><path fill="#3c3c3c" d="M12.696.228c-1.147.316-2.215 1.265-2.788 2.491-.376.83-.416 1.305-.475 6.25l-.079 5.339-2.314-.08c-3.105-.118-4.35.159-5.478 1.187C.158 16.721 0 17.373 0 22.198v4.153l.554 1.147c.652 1.306 1.503 1.978 2.907 2.294 1.206.277 23.513.277 24.72 0 1.305-.296 2.254-1.008 2.788-2.096.474-.95.474-1.008.534-8.444.06-8.345 0-8.8-1.206-9.947-1.306-1.246-1.701-1.345-5.142-1.345H22.05V5.864c0-3.125-.573-4.39-2.472-5.38C18.906.149 18.372.07 16.216.01c-1.72-.04-2.887.04-3.52.218m5.34 3.104c.296.1.613.317.692.435.079.139.158 5.38.158 11.648v11.43h-6.328l.02-11.034c.02-6.052.079-11.272.158-11.609.059-.336.316-.692.613-.83.613-.317 3.915-.336 4.686-.04m9.492 7.91c.297.1.613.317.692.436.08.138.158 3.401.158 7.277 0 5.755-.059 7.1-.277 7.416-.257.336-.573.376-3.164.435l-2.887.06.02-7.08c.02-3.896.079-7.337.158-7.673.06-.336.316-.692.613-.83.613-.317 3.916-.337 4.687-.04M8.543 17.572c.297.099.613.316.692.435.08.138.159 2.175.159 4.548v4.331l-2.77-.079c-2.333-.04-2.807-.118-3.104-.415-.316-.297-.356-.81-.415-3.659-.08-3.836.06-4.766.751-5.122.613-.316 3.916-.336 4.687-.04"/></svg>